# xmcd CD database file
#
# Track frame offsets:
#	150
#	13761
#	39168
#	57602
#	87018
#	106084
#	126620
#	139802
#	166156
#	180897
#	197646
#	217147
#	235347
#	250369
#	271350
#
# Disc length: 3876 seconds
#
# Revision: 0
# Processed by: cddbd v1.5.2PL0 Copyright (c) Steve Scherf et al.
# Submitted via: CDex 1.50Beta6
#
DISCID=d30f220f
DTITLE=Mimi Blais - Dancing Piano
DYEAR=1900
DGENRE=New Age
TTITLE0=Taxi
TTITLE1=Remember 'The Sting'
TTITLE2=Paraparase On "Black and White Rag'
TTITLE3=A Musical Massacre
TTITLE4=Piaf (To Her Memory)
TTITLE5=Maple Leaf 'Ragadeus'
TTITLE6='Mixed' Pickles (After Charles Johnson)
TTITLE7=Temptation Rag (After For Piano 4 Hands H.Lodge)
TTITLE8=A Totally Different Rag
TTITLE9=Bowery Buck
TTITLE10=Mimi, Ma Biche
TTITLE11=Memories Of You
TTITLE12=Smoke Carver Rag
TTITLE13=The Music Box Rag
TTITLE14=Piaf (New Version)
EXTD=
EXTT0=
EXTT1=
EXTT2=
EXTT3=
EXTT4=
EXTT5=
EXTT6=
EXTT7=
EXTT8=
EXTT9=
EXTT10=
EXTT11=
EXTT12=
EXTT13=
EXTT14=
PLAYORDER=
